<?xml version="1.0" standalone="no"?>
<!DOCTYPE svg PUBLIC "-//W3C//DTD SVG 20010904//EN"
 "http://www.w3.org/TR/2001/REC-SVG-20010904/DTD/svg10.dtd">
<svg version="1.0" xmlns="http://www.w3.org/2000/svg"
 width="646.000000pt" height="646.000000pt" viewBox="0 0 646.000000 646.000000"
 preserveAspectRatio="xMidYMid meet">
<metadata>
Created by potrace 1.14, written by Peter Selinger 2001-2017
</metadata>
<g transform="translate(0.000000,646.000000) scale(0.100000,-0.100000)"
fill="#000000" stroke="none">
<path d="M3025 6204 c-158 -13 -347 -39 -395 -54 -19 -6 -55 -15 -80 -20 -69
-14 -148 -36 -225 -64 -38 -14 -82 -26 -96 -26 -15 0 -37 -8 -50 -18 -13 -10
-55 -31 -94 -47 -38 -16 -95 -42 -125 -58 -30 -17 -73 -39 -95 -50 -22 -11
-47 -26 -55 -32 -8 -7 -44 -27 -80 -46 -36 -18 -87 -51 -115 -74 -27 -23 -63
-50 -80 -60 -16 -11 -50 -35 -75 -55 -25 -20 -58 -41 -73 -48 -15 -6 -30 -19
-34 -28 -3 -10 -40 -49 -81 -88 -42 -39 -84 -80 -94 -91 -60 -65 -225 -253
-233 -266 -34 -55 -65 -96 -84 -113 -11 -11 -21 -24 -21 -29 0 -6 -24 -51 -53
-101 -121 -208 -230 -458 -288 -661 -12 -38 -27 -92 -35 -119 -8 -26 -14 -56
-14 -65 0 -9 -7 -25 -15 -35 -8 -11 -12 -29 -9 -41 3 -12 -2 -65 -11 -116 -9
-52 -20 -157 -25 -234 -10 -172 -4 -664 11 -800 15 -149 50 -334 80 -431 10
-33 19 -70 19 -82 0 -12 9 -41 20 -64 11 -24 37 -88 59 -143 75 -192 170 -375
272 -526 10 -15 22 -42 26 -60 6 -21 19 -39 35 -46 14 -7 34 -25 43 -40 10
-15 44 -59 76 -97 32 -39 69 -83 81 -99 39 -47 230 -241 253 -257 12 -8 58
-42 101 -75 121 -92 137 -104 159 -114 11 -6 47 -30 80 -54 74 -54 431 -237
463 -237 8 0 28 -6 45 -14 76 -35 404 -130 487 -142 14 -1 77 -11 140 -20 143
-21 616 -25 725 -6 39 7 86 14 105 16 103 11 182 26 207 39 15 8 71 25 123 37
52 13 102 26 110 30 8 5 35 14 60 21 25 7 54 18 65 25 11 6 42 17 69 23 27 7
63 23 79 37 15 13 40 27 54 31 15 3 52 20 82 37 31 18 72 38 91 46 19 7 44 21
55 30 11 9 37 25 58 36 21 10 48 29 59 42 12 12 26 22 31 22 5 0 56 37 114 81
58 45 115 87 127 93 30 15 285 281 361 375 98 121 135 171 135 180 0 5 15 27
33 50 58 72 97 128 97 138 0 19 50 121 65 133 8 7 15 17 15 22 0 5 13 37 29
71 89 192 168 425 201 592 50 262 59 353 64 710 5 340 -14 595 -59 790 -9 39
-20 88 -25 110 -4 22 -15 58 -24 80 -8 22 -15 48 -16 58 0 25 -100 276 -145
367 -21 41 -50 101 -66 132 -16 32 -29 64 -29 72 0 8 -5 18 -10 21 -13 8 -104
144 -165 245 -11 18 -44 58 -72 89 -29 30 -53 60 -53 65 0 6 -9 19 -20 31
-239 240 -403 395 -417 395 -5 0 -35 19 -66 43 -30 23 -75 53 -98 67 -23 14
-63 39 -90 55 -27 17 -67 41 -90 55 -23 14 -57 35 -75 47 -19 12 -51 27 -71
32 -21 6 -47 17 -58 25 -11 8 -52 25 -90 39 -39 13 -101 37 -140 51 -120 46
-187 67 -239 77 -28 5 -80 16 -116 24 -36 9 -92 20 -125 25 -33 5 -89 14 -125
19 -69 11 -461 22 -545 15z m428 -130 c59 -4 105 -10 103 -13 -2 -3 17 -7 42
-8 115 -6 542 -115 597 -153 6 -4 37 -17 69 -29 164 -61 588 -311 579 -342 -2
-5 3 -6 10 -4 14 6 55 -28 207 -166 110 -101 185 -181 269 -289 28 -36 57 -72
64 -80 8 -8 27 -35 43 -60 16 -25 32 -49 37 -55 19 -25 57 -86 57 -92 0 -4 6
-14 14 -22 24 -27 134 -244 141 -278 3 -18 11 -35 16 -38 12 -8 61 -123 74
-175 3 -14 10 -34 15 -45 19 -43 79 -274 91 -350 45 -289 56 -474 40 -680 -19
-247 -44 -385 -106 -585 -18 -58 -38 -126 -45 -152 -7 -28 -17 -45 -23 -41 -5
3 -7 1 -4 -4 4 -6 -7 -38 -23 -72 -17 -34 -30 -64 -30 -68 0 -8 -133 -277
-141 -283 -3 -3 -17 -22 -31 -42 -13 -21 -28 -35 -33 -30 -5 4 -5 2 -1 -5 8
-15 -114 -191 -209 -303 -61 -71 -263 -267 -324 -315 -35 -27 -78 -62 -95 -76
-74 -62 -427 -279 -453 -279 -3 0 -35 -14 -70 -30 -71 -34 -106 -48 -203 -81
-36 -12 -72 -26 -81 -30 -9 -4 -74 -22 -145 -39 -71 -17 -138 -35 -149 -39
-26 -12 -248 -39 -407 -51 -173 -13 -550 17 -693 55 -27 7 -88 23 -135 35
-102 26 -299 95 -355 124 -22 11 -42 20 -45 21 -22 4 -80 31 -80 37 0 4 -7 8
-15 8 -16 0 -71 29 -178 94 -37 22 -76 46 -85 51 -23 14 -141 95 -161 111 -9
7 -43 34 -76 60 -110 87 -246 217 -241 230 3 8 0 11 -8 8 -7 -3 -30 16 -51 42
-21 25 -48 56 -59 68 -12 11 -44 50 -71 86 -28 36 -52 67 -55 70 -3 3 -28 39
-55 80 -27 41 -56 81 -62 88 -7 7 -13 18 -13 23 0 5 -16 34 -35 64 -36 56
-146 280 -160 325 -4 14 -18 49 -31 78 -13 29 -24 57 -24 63 0 9 -32 113 -51
164 -19 54 -63 272 -73 365 -20 182 -27 333 -21 460 9 209 61 533 105 654 10
28 21 64 24 79 4 15 11 25 15 22 5 -3 7 3 4 13 -9 36 143 370 240 527 201 325
436 579 750 808 29 20 61 41 73 46 11 5 28 16 36 25 17 16 62 44 146 87 30 16
59 32 65 37 7 5 66 33 132 62 66 28 127 55 135 59 8 5 62 22 120 40 58 18 112
36 121 41 35 18 406 88 499 93 112 7 370 7 473 1z m787 -5464 c0 -5 -5 -10
-11 -10 -5 0 -7 5 -4 10 3 6 8 10 11 10 2 0 4 -4 4 -10z m-1680 -104 c0 -3 -4
-8 -10 -11 -5 -3 -10 -1 -10 4 0 6 5 11 10 11 6 0 10 -2 10 -4z m150 -30 c0
-2 -7 -7 -16 -10 -8 -3 -12 -2 -9 4 6 10 25 14 25 6z m1110 0 c0 -3 -4 -8 -10
-11 -5 -3 -10 -1 -10 4 0 6 5 11 10 11 6 0 10 -2 10 -4z m-975 -26 c3 -5 1
-10 -4 -10 -6 0 -11 5 -11 10 0 6 2 10 4 10 3 0 8 -4 11 -10z"/>
<path d="M2898 6053 c7 -3 16 -2 19 1 4 3 -2 6 -13 5 -11 0 -14 -3 -6 -6z"/>
<path d="M2970 6047 c-154 -19 -370 -72 -370 -91 0 -2 18 -3 39 -3 21 1 37 5
35 8 -2 4 15 9 39 12 23 4 83 13 132 22 146 24 306 29 591 16 148 -7 278 -14
289 -17 11 -2 2 5 -20 15 -28 14 -81 23 -180 30 -181 14 -472 18 -555 8z"/>
<path d="M3806 5971 c-8 -12 12 -19 86 -27 67 -7 71 4 9 25 -41 13 -88 14 -95
2z"/>
<path d="M4026 5925 c-5 -14 13 -25 41 -25 21 0 11 22 -14 31 -15 5 -23 3 -27
-6z"/>
<path d="M2990 5739 c-25 -4 -92 -15 -150 -24 -142 -23 -415 -93 -445 -115 -5
-4 -22 -10 -38 -14 -42 -10 -250 -113 -361 -178 -144 -85 -313 -216 -435 -338
-110 -109 -201 -207 -201 -215 0 -3 -6 -13 -14 -22 -42 -51 -92 -123 -128
-182 -22 -36 -43 -68 -47 -71 -9 -8 -157 -311 -165 -340 -4 -14 -12 -34 -17
-45 -13 -28 -60 -184 -66 -220 -2 -16 -7 -37 -10 -45 -3 -8 -7 -21 -9 -29 -1
-7 -7 -34 -13 -60 -34 -153 -44 -286 -38 -531 4 -135 11 -264 17 -288 6 -23
12 -57 14 -75 13 -100 103 -398 153 -507 65 -141 134 -271 176 -335 110 -164
129 -191 157 -222 17 -18 30 -35 30 -38 0 -11 284 -287 321 -312 21 -14 39
-29 39 -32 0 -4 13 -15 30 -24 16 -10 35 -23 42 -30 46 -44 349 -214 453 -255
17 -7 57 -22 90 -35 33 -13 59 -28 58 -34 -1 -5 8 -8 21 -6 13 3 39 -2 57 -10
31 -13 191 -53 256 -63 57 -9 170 -25 243 -34 98 -11 370 -11 440 1 30 5 89
13 130 19 41 5 118 19 170 31 113 26 364 107 368 120 2 5 10 9 17 9 12 0 131
49 165 68 8 5 42 24 75 42 33 18 62 36 65 39 3 3 25 17 49 30 142 76 451 346
553 483 15 20 34 42 41 50 20 20 146 204 154 225 4 10 14 26 22 35 14 15 132
243 151 293 67 172 89 239 120 373 20 88 28 137 50 292 15 108 12 423 -5 545
-35 242 -99 480 -175 650 -49 110 -64 140 -69 145 -4 3 -17 28 -29 55 -26 55
-185 297 -208 316 -8 6 -14 15 -14 19 0 28 -325 348 -420 413 -14 10 -58 40
-98 67 -156 106 -287 175 -487 255 -152 61 -390 125 -524 140 -212 25 -468 31
-561 14z m435 -254 c127 -13 276 -31 332 -39 101 -15 244 -55 295 -82 14 -8
32 -14 40 -14 16 0 204 -94 265 -133 24 -15 45 -27 48 -27 9 0 101 -66 200
-143 6 -4 21 -17 35 -28 14 -12 51 -39 83 -61 69 -47 341 -311 377 -365 14
-21 33 -47 43 -57 9 -11 17 -23 17 -28 0 -4 28 -48 63 -96 82 -114 121 -177
146 -233 12 -26 27 -52 35 -59 14 -11 31 -59 61 -175 34 -130 55 -269 65 -434
10 -152 9 -206 -5 -348 -9 -92 -18 -171 -21 -174 -2 -4 -7 -28 -9 -52 -8 -66
-11 -76 -45 -189 -54 -173 -58 -185 -107 -298 -23 -54 -107 -224 -116 -235 -4
-5 -39 -59 -79 -120 -39 -60 -73 -112 -77 -115 -3 -3 -22 -25 -41 -50 -86
-111 -268 -294 -370 -370 -18 -14 -38 -30 -44 -35 -6 -6 -36 -26 -66 -45 -30
-19 -57 -37 -60 -40 -6 -7 -58 -41 -85 -56 -11 -6 -51 -28 -90 -49 -38 -21
-74 -41 -80 -45 -5 -3 -26 -13 -45 -20 -19 -7 -60 -24 -90 -37 -111 -49 -132
-57 -255 -89 -88 -23 -144 -34 -275 -58 -109 -20 -187 -25 -385 -22 -206 2
-259 7 -425 41 -151 31 -298 73 -353 102 -15 8 -37 16 -50 18 -34 7 -323 153
-356 181 -16 13 -32 24 -35 24 -6 0 -186 128 -196 140 -3 3 -18 16 -35 29 -94
71 -311 301 -375 396 -53 80 -105 150 -112 153 -4 2 -8 12 -8 22 0 10 -5 22
-10 25 -6 3 -19 23 -29 43 -10 20 -32 64 -49 97 -27 53 -67 139 -92 200 -35
83 -101 318 -113 400 -1 11 -5 25 -9 30 -28 45 -42 511 -20 680 11 90 13 99
40 175 108 307 314 645 532 874 84 88 200 201 242 235 18 14 51 43 74 64 23
20 45 37 50 37 5 0 22 14 38 30 16 17 35 30 42 30 7 0 14 3 16 8 4 8 104 77
151 103 55 30 154 79 160 79 4 0 32 12 64 26 88 40 86 39 283 97 102 30 226
62 275 71 50 9 104 20 120 25 52 16 183 12 420 -14z"/>
<path d="M3055 5010 c-110 -55 -207 -97 -215 -94 -8 3 -11 2 -7 -2 3 -4 -17
-19 -46 -34 -40 -21 -58 -39 -79 -76 -28 -51 -35 -84 -18 -84 6 0 10 -22 10
-48 0 -27 7 -72 16 -101 18 -60 14 -81 -16 -81 -11 0 -20 -4 -20 -10 0 -16
-27 -12 -73 11 -46 23 -213 154 -262 205 -16 17 -54 57 -84 89 -71 74 -93 88
-129 80 -80 -17 -166 -204 -196 -425 -8 -53 -12 -114 -11 -135 8 -98 18 -171
25 -186 5 -8 11 -26 13 -40 2 -13 8 -32 12 -43 5 -12 2 -28 -9 -45 -48 -75
-133 -264 -161 -361 -21 -69 -65 -184 -76 -194 -5 -6 -9 -16 -9 -23 0 -8 -16
-39 -35 -69 -19 -30 -35 -57 -35 -61 0 -3 -6 -14 -13 -22 -8 -9 -19 -29 -25
-46 -6 -16 -17 -43 -23 -60 -44 -112 -48 -312 -9 -461 37 -142 164 -323 335
-477 122 -109 313 -198 490 -228 33 -6 83 -15 110 -20 54 -10 394 -24 800 -35
316 -8 568 12 785 61 186 41 363 146 525 310 175 177 231 267 259 420 30 165
18 245 -64 425 -53 115 -73 185 -84 295 -9 79 -42 198 -74 260 -58 115 -120
210 -166 253 l-49 45 17 87 c33 173 40 339 20 469 -14 93 -28 157 -34 166 -4
6 -10 22 -14 38 -4 15 -23 45 -42 67 -32 35 -42 40 -81 40 -24 0 -56 -6 -71
-14 -34 -18 -101 -88 -181 -191 -35 -44 -91 -110 -124 -146 l-61 -66 -48 21
c-41 18 -48 25 -49 51 0 17 -6 48 -13 70 -10 34 -10 47 5 85 51 132 63 211 38
235 -8 7 -43 23 -79 35 -36 13 -114 47 -175 75 -241 116 -237 116 -500 -15z
m350 -7 c38 -15 72 -30 75 -33 11 -11 118 -59 180 -80 36 -12 66 -23 68 -25 5
-5 -140 -97 -183 -116 -84 -37 -205 -110 -205 -124 0 -25 20 -27 68 -5 128 57
261 128 293 157 20 18 40 33 44 33 20 0 -67 -224 -102 -263 -18 -19 -163 -112
-233 -148 -38 -20 -67 -68 -32 -54 9 4 31 12 47 18 17 6 69 30 118 54 48 24
93 41 100 37 6 -4 9 -4 6 0 -4 4 7 21 24 37 23 23 32 27 38 17 13 -20 11 -35
-10 -76 -25 -50 -46 -66 -111 -92 -38 -14 -71 -37 -105 -74 -49 -51 -53 -53
-125 -64 -136 -21 -178 -38 -239 -100 -43 -44 -61 -70 -74 -114 -24 -78 -59
-118 -102 -118 -58 0 -83 32 -105 133 -21 94 -49 155 -83 178 -11 8 -34 26
-51 41 l-31 28 31 27 c17 16 41 43 54 61 21 31 23 32 45 18 13 -9 41 -20 62
-25 21 -5 65 -17 98 -25 72 -18 157 -20 173 -4 26 26 10 36 -85 53 -140 25
-212 53 -239 92 -20 30 -70 231 -62 252 1 5 21 -3 43 -17 41 -28 148 -64 247
-83 45 -8 62 -17 78 -39 11 -15 20 -35 20 -44 0 -9 4 -24 9 -34 4 -9 20 -43
35 -75 23 -51 29 -57 42 -46 17 14 12 82 -7 106 -6 6 -8 17 -4 23 3 5 2 10 -3
10 -5 0 -14 24 -21 53 -18 82 -34 95 -136 118 -138 31 -290 98 -282 124 2 6
16 11 30 13 15 2 27 7 27 12 0 5 15 12 33 15 17 4 39 13 47 19 8 7 40 23 70
35 30 13 59 27 65 32 5 5 17 9 26 9 10 0 19 4 21 9 6 17 174 90 208 91 19 0
66 -12 105 -27z m946 -248 c23 -42 34 -79 20 -71 -6 4 -11 15 -11 26 0 20 -22
32 -44 24 -7 -3 -28 -28 -46 -57 -18 -29 -41 -64 -51 -79 -11 -15 -19 -29 -19
-32 0 -2 -16 -27 -35 -56 -19 -29 -38 -64 -42 -79 -3 -14 -12 -31 -18 -38 -7
-7 -16 -28 -19 -48 -6 -28 -2 -41 13 -62 12 -14 21 -32 21 -39 0 -16 46 -19
55 -4 3 6 16 10 28 10 16 0 18 3 9 9 -11 6 -10 10 5 16 17 7 17 8 -2 15 -11 5
-30 6 -42 3 -35 -8 -39 42 -8 97 13 25 28 52 32 60 3 8 18 33 32 55 14 22 40
64 57 93 l33 54 11 -44 c28 -102 38 -280 22 -372 -6 -35 -9 -37 -21 -23 -17
21 -37 22 -45 1 -4 -10 8 -33 30 -60 35 -42 38 -44 54 -27 9 10 15 23 13 28
-2 6 3 19 10 29 11 16 12 9 4 -45 -15 -102 -12 -101 -87 -21 -70 74 -80 77
-88 24 -2 -18 27 -52 138 -161 77 -75 140 -141 140 -145 0 -4 13 -26 28 -49
73 -107 108 -206 148 -422 23 -123 53 -222 79 -255 6 -8 25 -44 41 -80 25 -57
29 -77 29 -160 0 -88 -3 -101 -34 -165 -19 -39 -46 -84 -60 -101 -14 -17 -53
-66 -86 -108 -132 -168 -367 -320 -581 -375 -96 -25 -320 -42 -649 -50 -630
-14 -864 -1 -1092 65 -129 36 -156 49 -262 118 -191 126 -296 253 -379 456
-55 134 -65 184 -59 290 7 110 23 156 88 255 40 61 58 95 100 190 5 11 23 63
40 115 17 52 37 109 45 127 8 17 14 38 14 46 0 18 39 101 83 180 39 67 76 114
169 214 70 74 78 92 53 113 -12 10 -15 10 -15 -3 0 -8 -24 -33 -52 -55 -29
-23 -66 -57 -83 -77 l-29 -36 -17 83 c-18 88 -18 118 1 49 6 -22 15 -43 20
-46 6 -4 8 -11 5 -16 -4 -5 -3 -9 0 -9 27 0 138 103 142 132 5 32 -46 14 -80
-29 -10 -12 -23 -23 -28 -23 -12 0 -3 208 12 284 6 28 13 64 15 79 3 15 12 44
20 64 15 34 16 35 29 16 8 -12 21 -42 30 -69 9 -27 20 -57 25 -66 5 -9 18 -42
29 -74 11 -31 28 -62 37 -68 14 -11 15 -16 4 -37 -7 -13 -19 -28 -26 -32 -8
-4 -14 -19 -14 -32 0 -39 39 -32 78 12 46 54 49 73 15 135 -16 29 -47 98 -68
153 -21 55 -46 110 -54 123 -8 13 40 -30 106 -95 66 -66 141 -133 167 -149 25
-16 46 -32 46 -36 0 -4 -19 -19 -42 -35 -25 -17 -44 -38 -46 -51 -2 -12 0 -22
4 -22 17 0 74 25 74 32 0 4 7 8 17 8 9 0 44 13 79 30 34 16 75 32 90 36 32 8
31 5 -35 -80 -37 -47 -45 -65 -45 -96 2 -44 26 -82 71 -106 39 -22 72 -86 83
-163 4 -32 15 -72 24 -89 l16 -31 -41 14 c-52 19 -90 19 -132 1 -42 -17 -63
-42 -75 -89 -20 -73 18 -134 103 -163 60 -20 114 -20 152 0 41 21 54 40 64 92
7 39 6 50 -11 72 -25 31 -22 34 18 23 41 -12 99 4 134 36 15 14 39 55 53 90
32 82 71 143 90 143 8 0 15 4 15 9 0 12 100 42 174 51 77 9 94 18 140 71 32
38 119 89 151 89 18 0 48 32 98 103 12 17 18 18 58 7 24 -7 46 -15 49 -19 3
-3 24 -17 48 -30 42 -22 44 -22 57 -5 13 17 12 21 -11 42 -16 14 -24 29 -20
39 4 9 9 13 12 10 7 -6 117 117 194 217 8 11 40 46 69 78 49 53 59 59 90 56
27 -2 39 -10 52 -33z m-2192 8 c22 -18 22 -18 -13 -18 -20 0 -36 1 -36 2 0 10
14 33 20 33 4 0 18 -8 29 -17z m2257 -330 c2 -90 0 -171 -6 -185 -6 -16 -9 29
-9 147 0 94 -5 188 -10 210 -15 59 -12 76 6 30 10 -28 16 -89 19 -202z m-2360
192 c-3 -20 -16 -31 -16 -13 0 13 8 28 16 28 1 0 1 -7 0 -15z m-11 -67 c-3
-18 -9 -51 -15 -73 -5 -22 -12 -62 -16 -90 -5 -39 -8 -45 -14 -29 -4 11 -2 49
5 85 8 35 17 81 20 102 3 20 10 37 16 37 5 0 7 -15 4 -32z m-38 -280 c-2 -13
-4 -5 -4 17 -1 22 1 32 4 23 2 -10 2 -28 0 -40z m738 -492 c32 -8 85 -58 85
-80 0 -43 -83 -45 -161 -6 -37 19 -40 24 -37 58 3 32 7 38 33 43 17 3 35 2 40
-1 6 -4 24 -10 40 -14z"/>
<path d="M3698 3862 c-79 -46 -108 -101 -94 -176 25 -135 316 -73 341 72 15
89 -30 132 -137 132 -51 0 -72 -6 -110 -28z m136 -52 c37 0 60 -23 52 -53 -8
-34 -59 -63 -124 -72 -61 -8 -102 11 -102 47 0 26 27 58 50 58 9 0 20 4 26 9
12 12 45 20 62 15 8 -2 24 -4 36 -4z"/>
<path d="M2608 3483 c7 -3 16 -2 19 1 4 3 -2 6 -13 5 -11 0 -14 -3 -6 -6z"/>
<path d="M3796 3480 c-73 -23 -126 -86 -126 -149 0 -41 28 -61 86 -61 75 1
283 45 313 68 56 41 60 96 8 128 -25 15 -55 19 -142 21 -60 1 -123 -2 -139 -7z"/>
<path d="M2458 3467 c-63 -29 -88 -78 -68 -128 13 -29 51 -48 113 -54 48 -5
117 -21 167 -40 109 -42 170 -15 170 74 -1 65 -35 101 -126 129 -85 26 -218
36 -256 19z"/>
<path d="M4280 3371 c-102 -14 -232 -110 -273 -201 -30 -68 -29 -156 3 -204
95 -143 494 -149 634 -10 49 49 60 169 21 243 -32 63 -103 128 -163 149 -65
23 -155 32 -222 23z m195 -105 c50 -24 133 -108 141 -144 3 -15 7 -33 10 -40
2 -7 -2 -28 -10 -46 -33 -78 -270 -130 -417 -91 -76 19 -124 49 -143 89 -21
44 -20 57 5 111 32 68 92 112 184 134 62 15 184 8 230 -13z"/>
<path d="M2040 3352 c-36 -10 -82 -26 -103 -36 -40 -20 -127 -100 -127 -118 0
-5 -7 -25 -16 -44 -27 -56 -16 -141 25 -193 18 -22 39 -41 46 -41 7 0 15 -4
17 -9 6 -16 133 -52 217 -62 99 -12 270 -3 315 16 39 17 78 58 105 112 56 112
-11 253 -158 331 -107 58 -214 72 -321 44z m255 -113 c39 -19 69 -40 67 -48
-1 -7 2 -10 7 -6 23 14 101 -98 101 -145 0 -20 -11 -42 -32 -66 -29 -30 -42
-36 -103 -46 -135 -21 -357 8 -430 56 -43 28 -67 75 -62 123 6 57 36 95 110
137 61 34 63 35 167 33 98 -2 110 -5 175 -38z"/>
<path d="M3174 3278 c-3 -5 -23 -8 -46 -8 -54 0 -108 -51 -108 -101 0 -37 29
-91 63 -120 30 -25 89 -54 105 -51 6 2 12 -2 12 -8 0 -5 -6 -10 -12 -10 -7 0
-25 -7 -40 -14 -52 -27 -238 -86 -272 -86 -21 0 -42 9 -59 24 -24 22 -26 31
-23 75 3 37 1 51 -8 51 -22 0 -48 -37 -53 -78 -7 -53 18 -95 81 -134 87 -53
131 -109 142 -180 18 -110 67 -161 190 -198 55 -16 156 -6 263 26 52 15 105
91 130 185 16 58 84 129 156 164 71 33 105 78 105 138 0 49 -18 77 -50 77 -24
0 -32 -59 -10 -77 13 -10 12 -14 -4 -32 -28 -31 -83 -43 -147 -31 -58 11 -138
38 -153 52 -6 4 -22 8 -37 8 -15 0 -31 5 -35 11 -3 6 -15 9 -25 6 -10 -3 -22
-1 -25 4 -3 5 -14 9 -25 9 -25 0 -24 16 2 31 63 33 139 132 139 180 0 45 -33
76 -87 82 -91 10 -165 12 -169 5z m-56 -100 c-3 -7 -13 -15 -24 -17 -16 -3
-17 -1 -5 13 16 19 34 21 29 4z m197 -283 c100 -21 141 -43 161 -87 33 -74 0
-222 -58 -260 -32 -21 -165 -42 -226 -36 -132 13 -189 89 -170 228 9 72 35
123 64 128 10 2 33 10 49 17 67 29 83 30 180 10z"/>
<path d="M3225 2838 c-11 -47 -13 -211 -4 -236 10 -27 36 -29 44 -2 3 11 3 51
-1 88 -3 40 -2 77 3 88 6 10 8 36 6 57 -7 49 -38 52 -48 5z"/>
<path d="M1721 3124 c0 -11 3 -14 6 -6 3 7 2 16 -1 19 -3 4 -6 -2 -5 -13z"/>
<path d="M5370 4037 c0 -7 7 -36 15 -63 14 -49 26 -129 45 -297 10 -90 15
-107 29 -107 18 0 -18 286 -50 403 -12 42 -25 77 -30 77 -5 0 -9 -6 -9 -13z"/>
<path d="M962 3653 c-8 -21 -6 -340 3 -431 4 -37 11 -60 17 -56 5 3 7 17 4 29
-3 13 -6 125 -7 249 0 124 -2 226 -5 226 -3 0 -8 -8 -12 -17z"/>
<path d="M5437 3256 c-10 -25 -9 -68 2 -62 13 8 19 39 11 60 -6 18 -7 18 -13
2z"/>
<path d="M5428 3094 c-5 -4 -8 -16 -8 -26 0 -10 -4 -18 -10 -18 -13 0 -13 -20
0 -40 16 -25 32 3 28 50 -2 23 -6 38 -10 34z"/>
<path d="M990 2970 c0 -58 47 -258 80 -335 5 -11 21 -51 35 -89 15 -38 36 -86
47 -107 11 -21 16 -44 12 -50 -4 -7 -3 -9 3 -6 13 8 46 -50 37 -65 -4 -6 -3
-8 3 -5 5 3 26 -22 47 -56 39 -65 56 -89 148 -209 59 -78 85 -104 94 -96 4 5
-151 236 -167 248 -9 7 -99 156 -99 165 0 4 -9 19 -19 34 -11 15 -23 39 -26
54 -4 15 -11 27 -16 27 -5 0 -9 5 -9 11 0 6 -7 25 -15 42 -26 55 -64 172 -87
262 -6 28 -15 52 -19 55 -3 3 -9 25 -13 50 -4 25 -13 56 -21 70 l-14 25 -1
-25z"/>
<path d="M5390 2896 c0 -26 -77 -292 -90 -311 -4 -5 -17 -37 -30 -70 -34 -84
-129 -269 -175 -340 -50 -75 -67 -107 -61 -112 10 -10 28 11 80 88 29 43 56
76 61 71 4 -4 6 -2 2 3 -3 6 17 58 45 115 27 58 61 132 75 165 13 33 31 74 39
92 8 17 14 37 14 45 0 8 8 48 19 89 20 79 34 169 26 169 -3 0 -5 -2 -5 -4z"/>
<path d="M4535 1584 c-65 -47 -184 -124 -191 -124 -3 0 -18 -8 -32 -19 -36
-25 -201 -110 -284 -146 -37 -16 -67 -30 -65 -31 11 -11 237 63 237 78 0 5 4
8 8 8 5 0 55 27 112 60 57 32 108 56 114 53 6 -3 8 -3 4 2 -4 4 16 23 45 42
45 30 117 97 117 109 0 10 -19 1 -65 -32z"/>
<path d="M2300 1336 c0 -9 107 -53 144 -60 21 -4 46 -12 55 -17 17 -9 236 -63
431 -105 127 -27 331 -42 370 -26 23 9 22 10 -20 15 -25 3 -99 10 -165 16 -66
6 -136 15 -155 20 -19 5 -66 16 -105 25 -38 8 -113 25 -165 36 -52 12 -113 28
-135 35 -22 7 -64 18 -93 24 -29 6 -66 18 -82 26 -27 14 -80 21 -80 11z"/>
<path d="M3495 1173 c-11 -2 -30 -6 -42 -9 -13 -2 -23 -9 -23 -14 0 -13 45
-13 93 1 63 17 40 37 -28 22z"/>
<path d="M1570 5480 c-11 -11 -23 -20 -26 -20 -25 0 -288 -257 -389 -380 -33
-40 -67 -80 -75 -89 -8 -9 -21 -28 -28 -41 -19 -37 -78 -100 -86 -92 -4 3 -4
-2 0 -12 5 -13 4 -17 -4 -12 -6 4 -12 -3 -14 -16 -2 -13 -9 -22 -16 -20 -8 1
-11 -2 -7 -7 3 -6 -14 -41 -38 -78 -44 -70 -99 -179 -112 -223 -4 -14 -13 -38
-20 -55 -21 -50 -43 -118 -49 -154 l-6 -34 19 24 c10 14 25 45 32 69 7 25 16
50 20 55 4 6 12 29 18 52 6 23 17 48 25 55 7 7 16 24 19 38 13 50 101 200 173
295 8 11 28 38 45 60 102 137 171 215 182 208 6 -4 7 -1 2 7 -5 9 43 62 152
169 88 86 177 168 197 181 20 14 36 28 36 33 0 14 -30 7 -50 -13z"/>
<path d="M5370 4945 c0 -2 19 -34 41 -70 23 -36 39 -68 36 -71 -3 -4 3 -16 14
-28 11 -11 28 -37 37 -56 9 -19 19 -37 22 -40 5 -5 91 -168 119 -228 16 -34
38 -38 33 -6 -4 24 -91 197 -143 284 -21 36 -39 74 -39 84 0 11 -3 16 -7 13
-7 -8 -75 101 -69 112 3 4 -6 8 -20 9 -13 1 -24 0 -24 -3z"/>
<path d="M660 4133 c-17 -63 -17 -65 -4 -70 13 -4 36 98 25 110 -5 4 -14 -14
-21 -40z"/>
<path d="M5787 4127 c-8 -29 11 -90 25 -81 10 6 3 68 -12 93 -5 10 -9 7 -13
-12z"/>
<path d="M5834 3850 c3 -58 10 -168 16 -245 10 -126 8 -309 -5 -545 -6 -100 7
-83 23 31 29 203 34 330 18 519 -18 204 -32 305 -47 329 -7 11 -8 -17 -5 -89z"/>
<path d="M610 3889 c0 -11 5 -17 10 -14 6 3 10 13 10 21 0 8 -4 14 -10 14 -5
0 -10 -9 -10 -21z"/>
<path d="M557 3613 c-13 -20 -22 -164 -21 -323 1 -131 4 -172 17 -200 16 -34
17 -29 12 130 -3 91 -1 214 3 273 7 101 3 143 -11 120z"/>
</g>
</svg>
